# xmcd
#
# Track frame offsets: 
#        150
#        18599
#        32549
#        50327
#        83921
#        101996
#        118720
#        159370
#        178045
#        194321
#
# Disc length: 2806 seconds
#
# Revision: 3
# Processed by: cddbd v1.5.2PL0 Copyright (c) Steve Scherf et al.
# Submitted via: ExactAudioCopy v1.3
#
DISCID=7c0af40a
DTITLE=Ramon Valle and Orlando 'Maraca' Valle - The art of two
DYEAR=2016
DGENRE=Jazz
TTITLE0=Johana
TTITLE1=Love for Marah
TTITLE2=Guanajo relleno
TTITLE3=Alena
TTITLE4=Monologo
TTITLE5=Latin for two
TTITLE6=Tu mi delirio
TTITLE7=Mi guajira con tumbao
TTITLE8=Puentes
TTITLE9=Amigos
EXTD=YEAR: 2016
EXTT0=
EXTT1=
EXTT2=
EXTT3=
EXTT4=
EXTT5=
EXTT6=
EXTT7=
EXTT8=
EXTT9=
PLAYORDER=
